<svg xmlns="http://www.w3.org/2000/svg" xmlns:xlink="http://www.w3.org/1999/xlink" width="2000" zoomAndPan="magnify" viewBox="0 0 1500 1499.999933" height="2000" preserveAspectRatio="xMidYMid meet" version="1.0"><defs><g/><clipPath id="78b1953008"><path d="M 263 542 L 1212 542 L 1212 909 L 263 909 Z M 263 542 " clip-rule="nonzero"/></clipPath><clipPath id="04e7a27e39"><path d="M 263.078125 559.226562 L 1204.933594 542.785156 L 1211.03125 892.230469 L 269.175781 908.671875 Z M 263.078125 559.226562 " clip-rule="nonzero"/></clipPath><clipPath id="2c5cf96d05"><path d="M 263.082031 559.226562 L 1205.257812 542.78125 L 1211.359375 892.378906 L 269.183594 908.824219 Z M 263.082031 559.226562 " clip-rule="nonzero"/></clipPath><clipPath id="3c69e96b41"><path d="M 177.972656 629.851562 L 1286.40625 629.851562 L 1286.40625 821.757812 L 177.972656 821.757812 Z M 177.972656 629.851562 " clip-rule="nonzero"/></clipPath><clipPath id="b4942990a4"><path d="M 0.972656 0.851562 L 1109.40625 0.851562 L 1109.40625 192.757812 L 0.972656 192.757812 Z M 0.972656 0.851562 " clip-rule="nonzero"/></clipPath><clipPath id="58bd094014"><rect x="0" width="1110" y="0" height="193"/></clipPath><clipPath id="3665b95cc2"><path d="M 652.46875 616.125 L 809.21875 616.125 L 809.21875 814 L 652.46875 814 Z M 652.46875 616.125 " clip-rule="nonzero"/></clipPath><clipPath id="fbba6f6012"><path d="M 652.46875 616.125 L 805 616.125 L 805 812 L 652.46875 812 Z M 652.46875 616.125 " clip-rule="nonzero"/></clipPath></defs><g clip-path="url(#78b1953008)"><g clip-path="url(#04e7a27e39)"><g clip-path="url(#2c5cf96d05)"><path stroke-linecap="butt" transform="matrix(0.749886, -0.0130893, 0.0130893, 0.749886, 263.076865, 559.225372)" fill="none" stroke-linejoin="miter" d="M 0.00685946 0.00170753 L 1256.432671 0.00227547 L 1256.431756 466.203505 L 0.00594367 466.202937 Z M 0.00685946 0.00170753 " stroke="#000000" stroke-width="50" stroke-opacity="1" stroke-miterlimit="4"/></g></g></g><g clip-path="url(#3c69e96b41)"><g transform="matrix(1, 0, 0, 1, 177, 629)"><g clip-path="url(#58bd094014)"><g clip-path="url(#b4942990a4)"><path fill="#ffffff" d="M 0.972656 0.851562 L 1109.691406 0.851562 L 1109.691406 192.757812 L 0.972656 192.757812 Z M 0.972656 0.851562 " fill-opacity="1" fill-rule="nonzero"/></g></g></g></g><g clip-path="url(#3665b95cc2)"><path fill="#0097b2" d="M 751.25 637.808594 L 733.324219 616.125 L 676.265625 720.375 L 693.582031 731.792969 L 702.851562 730.875 L 652.515625 811.488281 L 672.207031 813.792969 L 793.933594 697.007812 L 787.769531 681.726562 L 765.25 683.863281 L 809.339844 637.964844 L 804.882812 616.125 Z M 751.25 637.808594 " fill-opacity="1" fill-rule="nonzero"/></g><g clip-path="url(#fbba6f6012)"><path fill="#00d4ff" d="M 733.324219 616.125 L 676.265625 720.375 L 711.585938 716.890625 L 652.515625 811.488281 L 787.769531 681.726562 L 737.265625 686.511719 L 804.882812 616.125 L 751.25 637.808594 Z M 733.324219 616.125 " fill-opacity="1" fill-rule="nonzero"/></g><g fill="#000000" fill-opacity="1"><g transform="translate(261.910998, 804.707311)"><g><path d="M 70.15625 2.265625 C 57.632812 2.265625 46.800781 0.34375 37.65625 -3.5 C 28.507812 -7.351562 21.40625 -13.046875 16.34375 -20.578125 C 11.289062 -28.109375 8.660156 -37.34375 8.453125 -48.28125 L 39.09375 -48.28125 C 39.375 -43.050781 40.851562 -38.628906 43.53125 -35.015625 C 46.21875 -31.410156 49.828125 -28.695312 54.359375 -26.875 C 58.898438 -25.050781 64.097656 -24.140625 69.953125 -24.140625 C 75.585938 -24.140625 80.519531 -24.960938 84.75 -26.609375 C 88.976562 -28.265625 92.257812 -30.570312 94.59375 -33.53125 C 96.9375 -36.488281 98.109375 -39.890625 98.109375 -43.734375 C 98.109375 -47.242188 97.09375 -50.203125 95.0625 -52.609375 C 93.03125 -55.015625 90.035156 -57.078125 86.078125 -58.796875 C 82.128906 -60.523438 77.234375 -62.039062 71.390625 -63.34375 L 54.671875 -67.46875 C 41.191406 -70.632812 30.753906 -75.640625 23.359375 -82.484375 C 15.972656 -89.328125 12.28125 -98.316406 12.28125 -109.453125 C 12.28125 -118.742188 14.769531 -126.859375 19.75 -133.796875 C 24.738281 -140.742188 31.582031 -146.160156 40.28125 -150.046875 C 48.988281 -153.929688 58.976562 -155.875 70.25 -155.875 C 81.664062 -155.875 91.617188 -153.914062 100.109375 -150 C 108.609375 -146.082031 115.226562 -140.613281 119.96875 -133.59375 C 124.71875 -126.582031 127.195312 -118.429688 127.40625 -109.140625 L 97.078125 -109.140625 C 96.523438 -115.546875 93.859375 -120.535156 89.078125 -124.109375 C 84.296875 -127.679688 77.953125 -129.46875 70.046875 -129.46875 C 64.753906 -129.46875 60.179688 -128.691406 56.328125 -127.140625 C 52.472656 -125.597656 49.53125 -123.46875 47.5 -120.75 C 45.476562 -118.03125 44.46875 -114.921875 44.46875 -111.421875 C 44.46875 -107.773438 45.550781 -104.726562 47.71875 -102.28125 C 49.882812 -99.84375 52.875 -97.816406 56.6875 -96.203125 C 60.507812 -94.585938 64.789062 -93.226562 69.53125 -92.125 L 83.5625 -88.71875 C 90.375 -87.207031 96.613281 -85.195312 102.28125 -82.6875 C 107.957031 -80.175781 112.859375 -77.128906 116.984375 -73.546875 C 121.109375 -69.972656 124.269531 -65.742188 126.46875 -60.859375 C 128.675781 -55.984375 129.78125 -50.414062 129.78125 -44.15625 C 129.78125 -34.726562 127.40625 -26.523438 122.65625 -19.546875 C 117.914062 -12.566406 111.109375 -7.1875 102.234375 -3.40625 C 93.359375 0.375 82.664062 2.265625 70.15625 2.265625 Z M 70.15625 2.265625 "/></g></g></g><g fill="#000000" fill-opacity="1"><g transform="translate(394.865631, 804.707311)"><g><path d="M 12.6875 0 L 12.6875 -113.890625 L 43.4375 -113.890625 L 43.4375 0 Z M 28.0625 -128.640625 C 23.320312 -128.640625 19.28125 -130.1875 15.9375 -133.28125 C 12.601562 -136.382812 10.9375 -140.171875 10.9375 -144.640625 C 10.9375 -149.109375 12.601562 -152.890625 15.9375 -155.984375 C 19.28125 -159.078125 23.320312 -160.625 28.0625 -160.625 C 32.8125 -160.625 36.835938 -159.078125 40.140625 -155.984375 C 43.441406 -152.890625 45.09375 -149.109375 45.09375 -144.640625 C 45.09375 -140.171875 43.441406 -136.382812 40.140625 -133.28125 C 36.835938 -130.1875 32.8125 -128.640625 28.0625 -128.640625 Z M 28.0625 -128.640625 "/></g></g></g><g fill="#000000" fill-opacity="1"><g transform="translate(445.703612, 804.707311)"><g><path d="M 71.078125 -113.890625 L 71.078125 -90.265625 L 1.953125 -90.265625 L 1.953125 -113.890625 Z M 18.5625 -141.84375 L 49.3125 -141.84375 L 49.3125 -33.734375 C 49.3125 -30.085938 50.117188 -27.421875 51.734375 -25.734375 C 53.347656 -24.054688 56.046875 -23.21875 59.828125 -23.21875 C 61.210938 -23.21875 62.984375 -23.335938 65.140625 -23.578125 C 67.304688 -23.816406 68.976562 -24.039062 70.15625 -24.25 L 73.5625 -0.828125 C 70.457031 -0.0664062 67.21875 0.460938 63.84375 0.765625 C 60.476562 1.078125 57.21875 1.234375 54.0625 1.234375 C 42.363281 1.234375 33.519531 -1.460938 27.53125 -6.859375 C 21.550781 -12.253906 18.5625 -20.144531 18.5625 -30.53125 Z M 18.5625 -141.84375 "/></g></g></g><g fill="#000000" fill-opacity="1"><g transform="translate(517.896039, 804.707311)"><g><path d="M 64.265625 2.265625 C 52.648438 2.265625 42.628906 -0.140625 34.203125 -4.953125 C 25.773438 -9.765625 19.273438 -16.570312 14.703125 -25.375 C 10.128906 -34.175781 7.84375 -44.53125 7.84375 -56.4375 C 7.84375 -68.195312 10.109375 -78.492188 14.640625 -87.328125 C 19.179688 -96.160156 25.578125 -103.070312 33.828125 -108.0625 C 42.085938 -113.050781 51.753906 -115.546875 62.828125 -115.546875 C 70.460938 -115.546875 77.546875 -114.304688 84.078125 -111.828125 C 90.609375 -109.347656 96.332031 -105.6875 101.25 -100.84375 C 106.164062 -96 109.984375 -89.945312 112.703125 -82.6875 C 115.421875 -75.425781 116.78125 -67.050781 116.78125 -57.5625 L 116.78125 -49 L 20.109375 -49 L 20.109375 -68.390625 L 101.828125 -68.390625 L 87.484375 -63.34375 C 87.484375 -69.257812 86.550781 -74.382812 84.6875 -78.71875 C 82.832031 -83.050781 80.097656 -86.398438 76.484375 -88.765625 C 72.878906 -91.140625 68.429688 -92.328125 63.140625 -92.328125 C 57.835938 -92.328125 53.328125 -91.125 49.609375 -88.71875 C 45.898438 -86.3125 43.066406 -83.007812 41.109375 -78.8125 C 39.148438 -74.625 38.171875 -69.8125 38.171875 -64.375 L 38.171875 -50.75 C 38.171875 -44.351562 39.269531 -38.921875 41.46875 -34.453125 C 43.675781 -29.984375 46.789062 -26.597656 50.8125 -24.296875 C 54.832031 -21.992188 59.523438 -20.84375 64.890625 -20.84375 C 68.535156 -20.84375 71.851562 -21.375 74.84375 -22.4375 C 77.832031 -23.5 80.375 -25.046875 82.46875 -27.078125 C 84.570312 -29.109375 86.175781 -31.601562 87.28125 -34.5625 L 115.234375 -30.53125 C 113.441406 -23.9375 110.222656 -18.175781 105.578125 -13.25 C 100.941406 -8.332031 95.132812 -4.515625 88.15625 -1.796875 C 81.175781 0.910156 73.210938 2.265625 64.265625 2.265625 Z M 64.265625 2.265625 "/></g></g></g><g fill="#000000" fill-opacity="1"><g transform="translate(819.737771, 800.726287)"><g><path d="M 67.875 -113.890625 L 67.875 -98.203125 L 1.953125 -98.203125 L 1.953125 -113.890625 Z M 23.9375 0 L 23.9375 -130.1875 C 23.9375 -136.507812 25.410156 -141.835938 28.359375 -146.171875 C 31.316406 -150.503906 35.21875 -153.769531 40.0625 -155.96875 C 44.914062 -158.175781 50.164062 -159.28125 55.8125 -159.28125 C 59.726562 -159.28125 63.0625 -159.003906 65.8125 -158.453125 C 68.5625 -157.898438 70.519531 -157.382812 71.6875 -156.90625 L 67.671875 -141.21875 C 66.773438 -141.5 65.484375 -141.789062 63.796875 -142.09375 C 62.117188 -142.40625 60.144531 -142.5625 57.875 -142.5625 C 52.375 -142.5625 48.398438 -141.203125 45.953125 -138.484375 C 43.515625 -135.765625 42.296875 -131.726562 42.296875 -126.375 L 42.296875 0 Z M 23.9375 0 "/></g></g></g><g fill="#000000" fill-opacity="1"><g transform="translate(877.191352, 800.726287)"><g><path d="M 33.9375 -153.703125 L 33.9375 0 L 15.578125 0 L 15.578125 -153.703125 Z M 33.9375 -153.703125 "/></g></g></g><g fill="#000000" fill-opacity="1"><g transform="translate(908.959508, 800.726287)"><g><path d="M 48.078125 2.46875 C 40.785156 2.46875 34.195312 1.128906 28.3125 -1.546875 C 22.4375 -4.234375 17.757812 -8.1875 14.28125 -13.40625 C 10.8125 -18.632812 9.078125 -25 9.078125 -32.5 C 9.078125 -39.03125 10.363281 -44.320312 12.9375 -48.375 C 15.519531 -52.4375 18.957031 -55.648438 23.25 -58.015625 C 27.550781 -60.390625 32.332031 -62.160156 37.59375 -63.328125 C 42.863281 -64.503906 48.175781 -65.4375 53.53125 -66.125 C 60.476562 -67.019531 66.066406 -67.707031 70.296875 -68.1875 C 74.523438 -68.664062 77.65625 -69.472656 79.6875 -70.609375 C 81.71875 -71.742188 82.734375 -73.722656 82.734375 -76.546875 L 82.734375 -77.265625 C 82.734375 -81.867188 81.820312 -85.820312 80 -89.125 C 78.175781 -92.425781 75.472656 -94.953125 71.890625 -96.703125 C 68.316406 -98.460938 63.882812 -99.34375 58.59375 -99.34375 C 53.15625 -99.34375 48.492188 -98.5 44.609375 -96.8125 C 40.722656 -95.125 37.5625 -92.957031 35.125 -90.3125 C 32.6875 -87.664062 30.984375 -84.863281 30.015625 -81.90625 L 12.171875 -86.546875 C 14.515625 -93.492188 18.054688 -99.082031 22.796875 -103.3125 C 27.546875 -107.539062 32.992188 -110.632812 39.140625 -112.59375 C 45.296875 -114.550781 51.644531 -115.53125 58.1875 -115.53125 C 62.582031 -115.53125 67.253906 -114.960938 72.203125 -113.828125 C 77.160156 -112.691406 81.820312 -110.710938 86.1875 -107.890625 C 90.550781 -105.078125 94.109375 -101.070312 96.859375 -95.875 C 99.609375 -90.6875 100.984375 -84.003906 100.984375 -75.828125 L 100.984375 0 L 82.9375 0 L 82.9375 -15.6875 L 81.90625 -15.6875 C 80.601562 -13 78.539062 -10.242188 75.71875 -7.421875 C 72.894531 -4.609375 69.210938 -2.253906 64.671875 -0.359375 C 60.140625 1.523438 54.609375 2.46875 48.078125 2.46875 Z M 51.0625 -13.828125 C 58.007812 -13.828125 63.820312 -15.148438 68.5 -17.796875 C 73.175781 -20.441406 76.71875 -23.894531 79.125 -28.15625 C 81.53125 -32.425781 82.734375 -36.898438 82.734375 -41.578125 L 82.734375 -57.046875 C 81.972656 -56.222656 80.40625 -55.46875 78.03125 -54.78125 C 75.664062 -54.09375 72.914062 -53.472656 69.78125 -52.921875 C 66.65625 -52.367188 63.5625 -51.898438 60.5 -51.515625 C 57.4375 -51.140625 54.84375 -50.816406 52.71875 -50.546875 C 48.3125 -49.992188 44.179688 -49.046875 40.328125 -47.703125 C 36.484375 -46.367188 33.390625 -44.425781 31.046875 -41.875 C 28.710938 -39.332031 27.546875 -35.894531 27.546875 -31.5625 C 27.546875 -27.71875 28.554688 -24.46875 30.578125 -21.8125 C 32.609375 -19.164062 35.378906 -17.171875 38.890625 -15.828125 C 42.398438 -14.492188 46.457031 -13.828125 51.0625 -13.828125 Z M 51.0625 -13.828125 "/></g></g></g><g fill="#000000" fill-opacity="1"><g transform="translate(1007.777962, 800.726287)"><g><path d="M 54.46875 2.46875 C 46.625 2.46875 39.609375 1.285156 33.421875 -1.078125 C 27.234375 -3.453125 22.144531 -6.976562 18.15625 -11.65625 C 14.164062 -16.332031 11.585938 -22.109375 10.421875 -28.984375 L 27.953125 -32.28125 C 29.398438 -25.882812 32.375 -21.15625 36.875 -18.09375 C 41.382812 -15.039062 47.179688 -13.515625 54.265625 -13.515625 C 62.171875 -13.515625 68.476562 -15.210938 73.1875 -18.609375 C 77.894531 -22.015625 80.25 -26.09375 80.25 -30.84375 C 80.25 -34.832031 78.820312 -38.132812 75.96875 -40.75 C 73.113281 -43.363281 68.9375 -45.289062 63.4375 -46.53125 L 44.5625 -51.0625 C 34.175781 -53.46875 26.4375 -57.265625 21.34375 -62.453125 C 16.257812 -67.648438 13.71875 -74.269531 13.71875 -82.3125 C 13.71875 -88.851562 15.519531 -94.613281 19.125 -99.59375 C 22.738281 -104.582031 27.707031 -108.484375 34.03125 -111.296875 C 40.363281 -114.117188 47.585938 -115.53125 55.703125 -115.53125 C 63.546875 -115.53125 70.285156 -114.289062 75.921875 -111.8125 C 81.554688 -109.34375 86.109375 -105.90625 89.578125 -101.5 C 93.054688 -97.101562 95.484375 -92.015625 96.859375 -86.234375 L 80.046875 -82.828125 C 78.804688 -87.304688 76.28125 -91.28125 72.46875 -94.75 C 68.65625 -98.21875 63.101562 -99.953125 55.8125 -99.953125 C 48.9375 -99.953125 43.28125 -98.367188 38.84375 -95.203125 C 34.40625 -92.046875 32.1875 -88.0625 32.1875 -83.25 C 32.1875 -78.988281 33.734375 -75.582031 36.828125 -73.03125 C 39.921875 -70.488281 44.664062 -68.460938 51.0625 -66.953125 L 68.5 -62.828125 C 78.945312 -60.347656 86.664062 -56.546875 91.65625 -51.421875 C 96.644531 -46.296875 99.140625 -39.78125 99.140625 -31.875 C 99.140625 -25.132812 97.242188 -19.1875 93.453125 -14.03125 C 89.671875 -8.875 84.425781 -4.832031 77.71875 -1.90625 C 71.019531 1.007812 63.269531 2.46875 54.46875 2.46875 Z M 54.46875 2.46875 "/></g></g></g><g fill="#000000" fill-opacity="1"><g transform="translate(1099.066146, 800.726287)"><g><path d="M 33.9375 -67.875 L 33.9375 0 L 15.578125 0 L 15.578125 -153.703125 L 33.9375 -153.703125 L 33.9375 -86.34375 L 30.21875 -86.34375 C 33.726562 -96.789062 38.710938 -104.265625 45.171875 -108.765625 C 51.640625 -113.273438 59.242188 -115.53125 67.984375 -115.53125 C 75.679688 -115.53125 82.488281 -113.929688 88.40625 -110.734375 C 94.320312 -107.535156 98.945312 -102.722656 102.28125 -96.296875 C 105.613281 -89.867188 107.28125 -81.769531 107.28125 -72 L 107.28125 0 L 88.8125 0 L 88.8125 -70.5625 C 88.8125 -79.5 86.507812 -86.457031 81.90625 -91.4375 C 77.300781 -96.425781 70.972656 -98.921875 62.921875 -98.921875 C 57.421875 -98.921875 52.488281 -97.75 48.125 -95.40625 C 43.757812 -93.070312 40.300781 -89.601562 37.75 -85 C 35.207031 -80.394531 33.9375 -74.6875 33.9375 -67.875 Z M 33.9375 -67.875 "/></g></g></g></svg>